{"title":"Men In Black 3 2012 DVDRip XviD AC3 - TODE","uid":7594778,"size":729005648,"categoryP":"video","categoryS":"movies","magnet":"?xt=urn:btih:c561af5f1c2db4d5cad605f5d15ca0d2b8b84cf6&amp;dn=Men+In+Black+3+2012+DVDRip+XviD+AC3+-+TODE&amp;tr=udp%3A%2F%2Ftracker.openbittorrent.com%3A80&amp;tr=udp%3A%2F%2Fopen.demonii.com%3A1337&amp;tr=udp%3A%2F%2Ftracker.coppersurfer.tk%3A6969&amp;tr=udp%3A%2F%2Fexodus.desync.com%3A6969","seeders":0,"leechers":0,"uploader":"Horrorspoke","files":-1,"time":1346657246,"description":"Plot:\n\nAgent J travels in time to MIB's early years in the 1960s, to stop an alien from assassinating his friend Agent K and changing history.\n\n\nDirector:\nBarry Sonnenfeld\n\nWriters:\nLowell Cunningham (comic), David Koepp (screenplay)\n\nStars:\nWill Smith, Tommy Lee Jones and Josh Brolin\n\nGenres:\nAction | Comedy | Sci-Fi\n\n\nCountry:\nUSA\n\nLanguage:\nEnglish\n\n\nFormat : AVI\nFormat/Info : Audio Video Interleave\nFile size : 695 MiB\nDuration : 1h 45mn\nOverall bit rate : 918 Kbps\nWriting application : Lavf54.21.100\n\nVideo\nID : 0\nFormat : MPEG-4 Visual\nFormat profile : Simple@L3\nFormat settings, BVOP : No\nFormat settings, QPel : No\nFormat settings, GMC : No warppoints\nFormat settings, Matrix : Default (H.263)\nCodec ID : XVID\nCodec ID/Hint : XviD\nDuration : 1h 45mn\nBit rate : 778 Kbps\nWidth : 640 pixels\nHeight : 320 pixels\nDisplay aspect ratio : 1.85:1\nFrame rate : 23.976 fps\nColor space : YUV\nChroma subsampling : 4:2:0\nBit depth : 8 bits\nScan type : Progressive\nCompression mode : Lossy\nBits/(Pixel*Frame) : 0.159\nStream size : 589 MiB (85%)\nWriting library : XviD 64\n\nAudio\nID : 1\nFormat : MPEG Audio\nFormat version : Version 1\nFormat profile : Layer 3\nCodec ID : 55\nCodec ID/Hint : MP3\nDuration : 1h 45mn\nBit rate mode : Constant\nBit rate : 128 Kbps\nChannel(s) : 2 channels\nSampling rate : 44.1 KHz\nCompression mode : Lossy\nStream size : 96.9 MiB (14%)\nAlignment : Aligned on interleaves\nInterleave, duration : 26 ms (0.63 video frame)\nInterleave, preload duration : 26 ms\nWriting library : LAME3.99.5\n\nSCREENS:\n\n\nSEED AND HAVE FUN!!!","torrent":{"xt":"urn:btih:c561af5f1c2db4d5cad605f5d15ca0d2b8b84cf6","amp;dn":"Men+In+Black+3+2012+DVDRip+XviD+AC3+-+TODE","amp;tr":["udp%3A%2F%2Ftracker.openbittorrent.com%3A80","udp%3A%2F%2Fopen.demonii.com%3A1337","udp%3A%2F%2Ftracker.coppersurfer.tk%3A6969","udp%3A%2F%2Fexodus.desync.com%3A6969"],"infoHash":"c561af5f1c2db4d5cad605f5d15ca0d2b8b84cf6","infoHashBuffer":{"type":"Buffer","data":[197,97,175,95,28,45,180,213,202,214,5,245,209,92,160,210,184,184,76,246]},"announce":[],"urlList":[]}}